<svg width="450" height="76" viewBox="0 0 450 76" fill="none" xmlns="http://www.w3.org/2000/svg">
<g clip-path="url(#clip0_127_1616)">
<path d="M230.67 27.84V27.82C230.67 25.44 232.45 23.48 234.92 23.48C236.44 23.48 237.35 24.02 238.19 24.81L237.54 25.51C236.83 24.84 236.04 24.36 234.9 24.36C233.04 24.36 231.65 25.87 231.65 27.8V27.82C231.65 29.76 233.05 31.29 234.9 31.29C236.05 31.29 236.81 30.85 237.61 30.08L238.23 30.69C237.35 31.58 236.4 32.16 234.87 32.16C232.45 32.16 230.66 30.25 230.66 27.84H230.67Z" fill="#453026"/>
<path d="M238.94 28.9399V28.9199C238.94 27.1699 240.31 25.6799 242.18 25.6799C244.05 25.6799 245.41 27.1399 245.41 28.8899V28.9099C245.41 30.6599 244.03 32.1499 242.16 32.1499C240.29 32.1499 238.95 30.6899 238.95 28.9399H238.94ZM244.46 28.9399V28.9199C244.46 27.5899 243.46 26.4999 242.16 26.4999C240.86 26.4999 239.89 27.5899 239.89 28.8999V28.9199C239.89 30.2499 240.87 31.3299 242.18 31.3299C243.49 31.3299 244.46 30.2499 244.46 28.9399Z" fill="#453026"/>
<path d="M246.86 23.26H247.78V32.01H246.86V23.26Z" fill="#453026"/>
<path d="M249.71 23.26H250.63V32.01H249.71V23.26Z" fill="#453026"/>
<path d="M252.1 28.9299V28.9099C252.1 27.1199 253.36 25.6799 255.07 25.6799C256.9 25.6799 257.96 27.1399 257.96 28.9499C257.96 29.0699 257.96 29.1399 257.95 29.2499H253.03C253.16 30.5899 254.11 31.3499 255.21 31.3499C256.06 31.3499 256.66 30.9999 257.16 30.4699L257.74 30.9899C257.12 31.6899 256.36 32.1499 255.19 32.1499C253.49 32.1499 252.1 30.8399 252.1 28.9199V28.9299ZM257.03 28.5699C256.93 27.4399 256.29 26.4599 255.05 26.4599C253.97 26.4599 253.15 27.3599 253.03 28.5699H257.02H257.03Z" fill="#453026"/>
<path d="M259.22 33.0899L259.64 32.3699C260.35 32.8899 261.14 33.1599 262.03 33.1599C263.4 33.1599 264.28 32.3999 264.28 30.9499V30.2199C263.74 30.9399 262.99 31.5299 261.85 31.5299C260.36 31.5299 258.94 30.4099 258.94 28.6299V28.6099C258.94 26.7999 260.38 25.6799 261.85 25.6799C263.01 25.6799 263.77 26.2599 264.27 26.9299V25.8099H265.19V30.9299C265.19 31.8899 264.9 32.6199 264.4 33.1199C263.85 33.6699 263.02 33.9499 262.04 33.9499C261.06 33.9499 260.05 33.6599 259.22 33.0899ZM264.3 28.6199V28.5999C264.3 27.3299 263.2 26.4999 262.02 26.4999C260.84 26.4999 259.87 27.3199 259.87 28.5899V28.6099C259.87 29.8599 260.87 30.7199 262.02 30.7199C263.17 30.7199 264.3 29.8699 264.3 28.6199Z" fill="#453026"/>
<path d="M266.57 28.9299V28.9099C266.57 27.1199 267.83 25.6799 269.54 25.6799C271.37 25.6799 272.43 27.1399 272.43 28.9499C272.43 29.0699 272.43 29.1399 272.42 29.2499H267.5C267.63 30.5899 268.58 31.3499 269.68 31.3499C270.53 31.3499 271.13 30.9999 271.63 30.4699L272.21 30.9899C271.59 31.6899 270.83 32.1499 269.66 32.1499C267.96 32.1499 266.57 30.8399 266.57 28.9199V28.9299ZM271.5 28.5699C271.4 27.4399 270.76 26.4599 269.52 26.4599C268.44 26.4599 267.62 27.3599 267.5 28.5699H271.49H271.5Z" fill="#453026"/>
<path d="M276.68 28.9399V28.9199C276.68 27.1699 278.05 25.6799 279.92 25.6799C281.79 25.6799 283.15 27.1399 283.15 28.8899V28.9099C283.15 30.6599 281.77 32.1499 279.9 32.1499C278.03 32.1499 276.69 30.6899 276.69 28.9399H276.68ZM282.2 28.9399V28.9199C282.2 27.5899 281.2 26.4999 279.9 26.4999C278.6 26.4999 277.63 27.5899 277.63 28.8999V28.9199C277.63 30.2499 278.61 31.3299 279.92 31.3299C281.23 31.3299 282.2 30.2499 282.2 28.9399Z" fill="#453026"/>
<path d="M284.86 26.63H284.01V25.83H284.86V25.29C284.86 24.58 285.05 24.04 285.4 23.7C285.71 23.39 286.17 23.22 286.73 23.22C287.16 23.22 287.45 23.27 287.75 23.38V24.18C287.42 24.08 287.16 24.02 286.85 24.02C286.13 24.02 285.77 24.45 285.77 25.34V25.84H287.74V26.63H285.78V32.01H284.86V26.63Z" fill="#453026"/>
<path d="M292.07 23.61H293.02V31.13H297.75V32.01H292.08V23.61H292.07Z" fill="#453026"/>
<path d="M298.58 30.21V30.19C298.58 28.88 299.66 28.19 301.23 28.19C302.02 28.19 302.59 28.3 303.14 28.45V28.23C303.14 27.11 302.46 26.54 301.29 26.54C300.56 26.54 299.98 26.73 299.41 27L299.13 26.25C299.81 25.94 300.49 25.73 301.38 25.73C302.27 25.73 302.93 25.96 303.38 26.41C303.8 26.83 304.02 27.43 304.02 28.22V32.01H303.13V31.07C302.7 31.63 301.98 32.14 300.89 32.14C299.74 32.14 298.58 31.48 298.58 30.21ZM303.15 29.73V29.13C302.69 29 302.08 28.87 301.33 28.87C300.17 28.87 299.52 29.37 299.52 30.15V30.17C299.52 30.95 300.24 31.41 301.08 31.41C302.22 31.41 303.16 30.71 303.16 29.73H303.15Z" fill="#453026"/>
<path d="M304.93 25.8099H305.91L307.54 30.7899L309.21 25.7899H309.98L311.66 30.7899L313.29 25.8099H314.25L312.07 32.0599H311.27L309.6 27.1699L307.92 32.0599H307.1L304.93 25.8099Z" fill="#453026"/>
<path d="M231.64 39.4099H240.7V40.7199H233.07V45.2199H239.89V46.5199H233.07V52.0099H231.65V39.4099H231.64Z" fill="#453026"/>
<path d="M242.8 39.14H244.38V40.67H242.8V39.14ZM242.89 42.71H244.28V52.02H242.89V42.71Z" fill="#453026"/>
<path d="M247.05 42.6999H248.44V45.1299C249.12 43.5799 250.47 42.4599 252.24 42.5399V44.0299H252.13C250.1 44.0299 248.44 45.4899 248.44 48.2999V52.0099H247.05V42.6999Z" fill="#453026"/>
<path d="M252.91 47.38V47.34C252.91 44.66 254.8 42.5 257.37 42.5C260.12 42.5 261.71 44.7 261.71 47.42C261.71 47.6 261.71 47.71 261.69 47.87H254.31C254.51 49.89 255.93 51.02 257.59 51.02C258.87 51.02 259.77 50.5 260.52 49.71L261.38 50.48C260.44 51.52 259.31 52.23 257.55 52.23C254.99 52.23 252.9 50.27 252.9 47.39L252.91 47.38ZM260.31 46.84C260.17 45.15 259.19 43.67 257.34 43.67C255.72 43.67 254.49 45.02 254.31 46.84H260.31Z" fill="#453026"/>
<path d="M262.99 49.31V49.27C262.99 47.31 264.61 46.26 266.97 46.26C268.16 46.26 269 46.42 269.83 46.66V46.34C269.83 44.67 268.8 43.8 267.06 43.8C265.96 43.8 265.1 44.09 264.23 44.48L263.81 43.35C264.84 42.88 265.85 42.58 267.2 42.58C268.55 42.58 269.52 42.92 270.21 43.61C270.84 44.24 271.16 45.14 271.16 46.33V52.02H269.83V50.62C269.18 51.47 268.1 52.22 266.46 52.22C264.73 52.22 262.98 51.23 262.98 49.32L262.99 49.31ZM269.85 48.59V47.69C269.17 47.49 268.25 47.29 267.11 47.29C265.36 47.29 264.39 48.05 264.39 49.22V49.26C264.39 50.43 265.47 51.11 266.73 51.11C268.44 51.11 269.85 50.07 269.85 48.59Z" fill="#453026"/>
<path d="M273.67 42.6999H275.06V45.1299C275.74 43.5799 277.09 42.4599 278.86 42.5399V44.0299H278.75C276.72 44.0299 275.06 45.4899 275.06 48.2999V52.0099H273.67V42.6999Z" fill="#453026"/>
<path d="M280.51 42.7H281.9V44.27C282.51 43.35 283.34 42.51 284.91 42.51C286.48 42.51 287.39 43.32 287.9 44.36C288.57 43.33 289.56 42.51 291.18 42.51C293.32 42.51 294.64 43.95 294.64 46.26V52.02H293.25V46.58C293.25 44.78 292.35 43.77 290.84 43.77C289.43 43.77 288.28 44.81 288.28 46.65V52.02H286.89V46.55C286.89 44.8 285.97 43.78 284.5 43.78C283.03 43.78 281.91 45 281.91 46.71V52.02H280.52V42.71L280.51 42.7Z" fill="#453026"/>
<path d="M296.4 50.82L297.1 49.83C298.11 50.59 299.22 51.02 300.32 51.02C301.42 51.02 302.25 50.44 302.25 49.54V49.5C302.25 48.56 301.15 48.2 299.93 47.86C298.47 47.45 296.85 46.94 296.85 45.23V45.19C296.85 43.59 298.18 42.52 300.02 42.52C301.15 42.52 302.41 42.92 303.37 43.55L302.74 44.59C301.88 44.03 300.89 43.69 299.99 43.69C298.89 43.69 298.19 44.27 298.19 45.04V45.08C298.19 45.96 299.34 46.3 300.59 46.68C302.03 47.11 303.58 47.67 303.58 49.35V49.39C303.58 51.15 302.12 52.18 300.27 52.18C298.94 52.18 297.46 51.66 296.42 50.81L296.4 50.82Z" fill="#453026"/>
<path d="M310.87 39.4099H316.29C317.84 39.4099 319.08 39.8799 319.87 40.6699C320.48 41.2799 320.84 42.1699 320.84 43.1599V43.1999C320.84 45.2899 319.4 46.5099 317.42 46.8699L321.29 52.0199H319.54L315.88 47.1199H312.28V52.0199H310.86V39.4199L310.87 39.4099ZM316.16 45.8399C318.05 45.8399 319.4 44.8699 319.4 43.2499V43.2099C319.4 41.6599 318.21 40.7299 316.18 40.7299H312.29V45.8399H316.16Z" fill="#453026"/>
<path d="M322.45 47.38V47.34C322.45 44.66 324.34 42.5 326.92 42.5C329.67 42.5 331.26 44.7 331.26 47.42C331.26 47.6 331.26 47.71 331.24 47.87H323.86C324.06 49.89 325.48 51.02 327.14 51.02C328.42 51.02 329.32 50.5 330.07 49.71L330.93 50.48C329.99 51.52 328.86 52.23 327.1 52.23C324.54 52.23 322.45 50.27 322.45 47.39V47.38ZM329.85 46.84C329.71 45.15 328.73 43.67 326.88 43.67C325.26 43.67 324.04 45.02 323.86 46.84H329.86H329.85Z" fill="#453026"/>
<path d="M332.46 50.82L333.16 49.83C334.17 50.59 335.28 51.02 336.38 51.02C337.48 51.02 338.31 50.44 338.31 49.54V49.5C338.31 48.56 337.21 48.2 335.99 47.86C334.53 47.45 332.91 46.94 332.91 45.23V45.19C332.91 43.59 334.24 42.52 336.08 42.52C337.21 42.52 338.47 42.92 339.43 43.55L338.8 44.59C337.94 44.03 336.95 43.69 336.05 43.69C334.95 43.69 334.25 44.27 334.25 45.04V45.08C334.25 45.96 335.4 46.3 336.64 46.68C338.08 47.11 339.63 47.67 339.63 49.35V49.39C339.63 51.15 338.17 52.18 336.32 52.18C334.99 52.18 333.51 51.66 332.47 50.81L332.46 50.82Z" fill="#453026"/>
<path d="M341.17 47.38V47.34C341.17 44.66 343.06 42.5 345.64 42.5C348.39 42.5 349.98 44.7 349.98 47.42C349.98 47.6 349.98 47.71 349.96 47.87H342.58C342.78 49.89 344.2 51.02 345.86 51.02C347.14 51.02 348.04 50.5 348.79 49.71L349.65 50.48C348.71 51.52 347.58 52.23 345.82 52.23C343.26 52.23 341.17 50.27 341.17 47.39V47.38ZM348.57 46.84C348.43 45.15 347.45 43.67 345.6 43.67C343.98 43.67 342.76 45.02 342.58 46.84H348.58H348.57Z" fill="#453026"/>
<path d="M351.25 49.31V49.27C351.25 47.31 352.87 46.26 355.23 46.26C356.42 46.26 357.26 46.42 358.09 46.66V46.34C358.09 44.67 357.06 43.8 355.32 43.8C354.22 43.8 353.36 44.09 352.49 44.48L352.07 43.35C353.1 42.88 354.11 42.58 355.46 42.58C356.81 42.58 357.78 42.92 358.47 43.61C359.1 44.24 359.42 45.14 359.42 46.33V52.02H358.09V50.62C357.44 51.47 356.36 52.22 354.72 52.22C352.99 52.22 351.24 51.23 351.24 49.32L351.25 49.31ZM358.11 48.59V47.69C357.43 47.49 356.51 47.29 355.37 47.29C353.62 47.29 352.65 48.05 352.65 49.22V49.26C352.65 50.43 353.73 51.11 354.99 51.11C356.7 51.11 358.11 50.07 358.11 48.59Z" fill="#453026"/>
<path d="M361.92 42.6999H363.31V45.1299C363.99 43.5799 365.35 42.4599 367.11 42.5399V44.0299H367C364.96 44.0299 363.31 45.4899 363.31 48.2999V52.0099H361.92V42.6999Z" fill="#453026"/>
<path d="M367.79 47.4V47.36C367.79 44.73 369.84 42.5 372.56 42.5C374.32 42.5 375.42 43.24 376.29 44.16L375.37 45.13C374.63 44.36 373.8 43.73 372.54 43.73C370.65 43.73 369.21 45.33 369.21 47.33V47.37C369.21 49.39 370.69 50.99 372.63 50.99C373.82 50.99 374.74 50.4 375.47 49.6L376.35 50.43C375.41 51.47 374.3 52.23 372.55 52.23C369.83 52.23 367.78 50.02 367.78 47.4H367.79Z" fill="#453026"/>
<path d="M378.19 38.87H379.58V44.33C380.19 43.32 381.16 42.51 382.77 42.51C385.02 42.51 386.33 44.02 386.33 46.24V52.02H384.94V46.58C384.94 44.85 384 43.77 382.37 43.77C380.74 43.77 379.58 44.94 379.58 46.69V52.02H378.19V38.88V38.87Z" fill="#453026"/>
<path d="M393.46 45.7399V45.6999C393.46 42.1299 396.12 39.1799 399.83 39.1799C402.12 39.1799 403.48 39.9899 404.75 41.1799L403.78 42.2199C402.72 41.2099 401.53 40.4899 399.82 40.4899C397.03 40.4899 394.94 42.7599 394.94 45.6599V45.6999C394.94 48.6199 397.05 50.8999 399.82 50.8999C401.55 50.8999 402.68 50.2299 403.89 49.0799L404.83 49.9999C403.52 51.3299 402.08 52.2099 399.79 52.2099C396.15 52.2099 393.47 49.3499 393.47 45.7299L393.46 45.7399Z" fill="#453026"/>
<path d="M405.86 47.38V47.34C405.86 44.66 407.75 42.5 410.32 42.5C413.07 42.5 414.66 44.7 414.66 47.42C414.66 47.6 414.66 47.71 414.64 47.87H407.26C407.46 49.89 408.88 51.02 410.54 51.02C411.82 51.02 412.72 50.5 413.48 49.71L414.34 50.48C413.4 51.52 412.27 52.23 410.5 52.23C407.94 52.23 405.86 50.27 405.86 47.39V47.38ZM413.26 46.84C413.12 45.15 412.14 43.67 410.29 43.67C408.67 43.67 407.45 45.02 407.27 46.84H413.27H413.26Z" fill="#453026"/>
<path d="M416.64 42.7H418.03V44.32C418.64 43.31 419.61 42.5 421.22 42.5C423.47 42.5 424.78 44.01 424.78 46.23V52.01H423.39V46.57C423.39 44.84 422.45 43.76 420.81 43.76C419.17 43.76 418.02 44.93 418.02 46.68V52.01H416.63V42.7H416.64Z" fill="#453026"/>
<path d="M427.76 49.54V43.92H426.46V42.7H427.76V39.89H429.15V42.7H432.1V43.92H429.15V49.36C429.15 50.49 429.78 50.91 430.72 50.91C431.19 50.91 431.58 50.82 432.07 50.59V51.78C431.58 52.03 431.06 52.18 430.4 52.18C428.91 52.18 427.77 51.44 427.77 49.55L427.76 49.54Z" fill="#453026"/>
<path d="M433.25 47.38V47.34C433.25 44.66 435.14 42.5 437.71 42.5C440.46 42.5 442.05 44.7 442.05 47.42C442.05 47.6 442.05 47.71 442.03 47.87H434.65C434.85 49.89 436.27 51.02 437.93 51.02C439.21 51.02 440.11 50.5 440.87 49.71L441.73 50.48C440.79 51.52 439.66 52.23 437.89 52.23C435.33 52.23 433.25 50.27 433.25 47.39V47.38ZM440.65 46.84C440.51 45.15 439.53 43.67 437.68 43.67C436.06 43.67 434.84 45.02 434.66 46.84H440.66H440.65Z" fill="#453026"/>
<path d="M444.04 42.6999H445.43V45.1299C446.11 43.5799 447.47 42.4599 449.23 42.5399V44.0299H449.12C447.09 44.0299 445.43 45.4899 445.43 48.2999V52.0099H444.04V42.6999Z" fill="#453026"/>
<path d="M215.95 1.71997H215.07V73.72H215.95V1.71997Z" fill="#453026"/>
<path d="M52.77 12.15C52.01 12.61 51.82 12.93 51.82 15.18V24.55C51.82 28.55 54.04 32.25 58.49 32.25C60.87 32.25 63.08 31.06 64.89 29.63C64.92 28.93 64.89 15.43 64.89 14.13C64.89 13.05 64.54 12.72 63.73 12.18L63.76 12.04C64.92 12.12 67.16 12.12 68.27 12.04L68.41 12.15C67.25 12.61 66.84 12.91 66.84 14.17C66.84 14.17 66.81 24.11 66.81 29.84C66.81 31.24 66.84 32.24 68.27 32.78L68.14 32.89C66.89 32.81 65.06 32.81 64.01 32.89L63.95 32.75C64.71 32.26 64.9 31.15 64.9 30.32C63.41 31.19 60.82 32.99 57.55 32.99C51.93 32.99 50.04 28.45 50.04 24.51V15.17C50.04 13.87 49.9 12.65 48.47 12.2L48.55 12.03C49.77 12.11 51.71 12.11 52.76 12.03V12.14L52.77 12.15Z" fill="#453026"/>
<path d="M73.1401 17.25C73.1701 27.03 73.1701 22.84 73.1701 31.3C73.1701 32.08 74.0901 32.62 74.5501 32.81L74.4101 32.89C73.1101 32.78 71.4701 32.81 70.8201 32.89C71.6001 32.54 72.1201 32.27 72.1201 31.32V16.13C72.1201 15.73 71.2601 15.21 70.9001 15.13L70.8701 14.97C71.7301 15.02 73.7601 15.08 74.2201 14.97C74.1101 15.26 74.0801 15.37 74.0801 15.67C74.0801 16.54 83.9101 28.34 85.1301 29.75V17.24C85.1301 16.02 84.9401 15.45 83.8301 14.97C84.8001 15.05 86.4801 15.08 87.5301 14.97L87.2901 15.21C85.9601 15.48 86.1801 17.26 86.1801 18.29C86.1801 21.04 86.2401 32.15 86.1801 33.01C86.1801 33.01 75.1001 19.5 73.1301 17.23L73.1401 17.25Z" fill="#453026"/>
<path d="M93.9801 15.01C93.6601 15.58 92.6601 15.12 92.6601 17.06C92.6601 17.57 92.6901 28 92.6601 31.38C92.6601 32.19 93.0401 32.41 93.6901 32.78L93.5801 32.89C92.5801 32.81 90.9601 32.83 90.0901 32.89L90.0401 32.75C90.0901 32.8 91.1201 32.48 91.1201 31.53V16.91C91.1201 15.29 89.9301 15.23 89.8201 14.99C90.7701 15.15 92.8501 15.01 93.9801 14.99V15.01Z" fill="#453026"/>
<path d="M99.1501 15.01L99.2301 15.12C99.0101 15.39 98.8801 15.63 98.8801 15.99C98.8801 16.64 104.58 29.23 105.26 30.69C105.77 29.59 111.9 17.7 111.9 15.97C111.9 15.64 111.82 15.35 111.6 15.13L111.71 15.02C112.68 15.02 113.82 15.13 114.79 15.02L114.71 15.18C113.95 15.53 113.71 15.91 113.25 16.8C113.25 16.8 105.39 32.47 105.06 33.06C104.09 30.9 97.5201 16.53 97.5201 16.53C97.1101 15.61 96.8401 15.34 96.1901 15.2L96.1401 15.01C97.0801 15.06 98.3801 15.06 99.1401 15.01H99.1501Z" fill="#453026"/>
<path d="M124.85 24.68C124.85 23.6 120.18 23.95 119.69 23.95V32.14H123.66C124.98 32.14 126.31 32.14 126.9 30.76H127.04C127.04 30.76 126.99 32.17 126.12 32.9H116.93L116.82 32.76C118.39 32.22 118.17 31.11 118.17 29.41V17.17C118.17 15.41 117.2 15.39 117.09 15.2C117.01 15.09 117.06 15.09 117.01 15.01H124.33C124.52 15.01 124.74 15.96 124.79 16.49L124.6 16.41C124.39 15.25 120.71 15.87 119.68 15.84V23.08C120.63 23.14 124.74 23.27 124.84 22.11L124.98 22.08C124.93 22.95 124.93 23.81 124.95 24.67H124.84L124.85 24.68Z" fill="#453026"/>
<path d="M139.01 19.19C139.01 20.95 137.69 22.6 136.2 23.52C137.5 25.52 141.79 32.7 144.25 32.7C144.44 32.7 144.63 32.73 144.76 32.89C144.65 33.08 144.14 33 143.95 33C139.65 33 136.79 27.24 134.6 24.08C133.65 24.22 132.92 24.19 131.95 24.19V31.37C132.09 31.62 131.82 32.18 133.25 32.72L133.09 32.88C131.93 32.72 130.63 32.88 129.33 32.88L129.25 32.74C129.93 32.42 130.41 32.28 130.41 31.49C130.43 30.6 130.41 16.44 130.41 16.44C130.41 15.9 129.98 15.22 129.22 15.06L129.27 14.95C130.81 15.08 132.38 14.76 133.92 14.76C136.73 14.76 139 16.09 139 19.16L139.01 19.19ZM133.61 15.33C133.04 15.33 132.48 15.44 131.96 15.66V23.5C131.96 23.66 133.04 23.61 133.18 23.61C135.91 23.61 137.4 22.17 137.4 19.42C137.4 17.15 135.97 15.34 133.62 15.34L133.61 15.33Z" fill="#453026"/>
<path d="M150.33 14.92C151.47 14.92 152.57 15.22 153.65 15.57C153.76 16.06 153.73 17.03 153.57 17.51L153.46 17.54C152.92 16.21 151.62 15.46 150.22 15.46C148.54 15.46 147.03 16.6 147.03 18.35C147.03 22.48 154.59 23.75 154.59 28.48C154.59 31.26 152.43 32.99 149.75 32.99C148.51 32.99 147.29 32.72 146.05 32.67L145.83 29.97L146 29.86C147.05 31.78 147.19 32.48 149.73 32.48C151.62 32.48 153.38 31.37 153.38 29.29C153.38 25.16 146 23.73 146 19.13C146 16.65 147.86 14.92 150.32 14.92H150.33Z" fill="#453026"/>
<path d="M161.19 15.01C160.87 15.58 159.86 15.12 159.86 17.06C159.86 17.57 159.89 28 159.86 31.38C159.86 32.19 160.24 32.41 160.89 32.78L160.78 32.89C159.78 32.81 158.16 32.83 157.29 32.89L157.24 32.75C157.29 32.8 158.32 32.48 158.32 31.53V16.91C158.32 15.29 157.13 15.23 157.02 14.99C157.97 15.15 160.05 15.01 161.18 14.99L161.19 15.01Z" fill="#453026"/>
<path d="M164.44 15.03H176.97C177.49 15.03 177.78 15.7 178.16 16.71L177.99 16.82C177.99 16.82 177.34 15.87 176.45 15.87H171.45V30.57C171.45 31.14 171.23 32.16 172.56 32.78L172.45 32.92C171.18 32.84 169.88 32.78 168.64 32.92L168.62 32.73C169.97 32.38 169.89 31.81 169.89 30.59C169.92 25.78 169.92 20.81 169.89 15.87H165.3C165.03 15.87 163.86 16.06 163.62 16.82C163.567 16.78 163.52 16.7434 163.48 16.71C163.67 16.12 163.86 15.41 164.43 15.03H164.44Z" fill="#453026"/>
<path d="M180.12 15.01C181.2 15.06 183.36 15.12 184.44 15.01C184.01 15.31 183.61 15.66 183.61 16.22C183.61 17.55 188.93 29.57 189.34 30.52C190.04 29.14 196.12 16.2 196.12 15.96C196.09 15.47 195.85 15.34 195.53 15.18L195.61 15.02C196.47 15.07 198.18 15.1 199.1 15.02L199.2 15.13C198.74 15.29 197.93 15.8 197.74 16C197.31 16.35 196.74 17.13 196.23 18.27C194.64 21.87 192.12 27.35 189.91 31.73C188.43 34.65 186.61 36.65 184.97 36.65H184.48C185.15 36.11 186.93 35.89 188.42 32C187.09 28.97 183.5 18.98 181.45 15.87C181.07 15.3 180.53 15.2 180.2 15.2L180.12 15.04V15.01Z" fill="#453026"/>
<path d="M59.1399 54.18C59.1399 57.26 56.6699 59.58 53.6399 59.58C50.6099 59.58 48.4199 57.06 48.4199 54.08C48.4199 50.93 50.7699 48.61 53.9099 48.61C57.0499 48.61 59.1499 51.11 59.1499 54.17L59.1399 54.18ZM53.6899 48.96C51.0399 48.96 49.4099 51.22 49.4099 53.71C49.4099 56.2 51.1199 59.21 53.9699 59.21C56.6299 59.21 58.0999 56.75 58.0999 54.33C58.0999 51.91 56.4899 48.96 53.6899 48.96Z" fill="#453026"/>
<path d="M65.2002 48.63C65.7302 48.63 65.7302 49.11 65.7602 49.5C65.6702 49.52 65.6302 49.53 65.5802 49.47C65.4002 49.22 65.4602 49.14 64.8202 49.09L62.3502 49.16V53.59L64.7402 53.52C65.1502 53.52 65.2702 53.23 65.4602 52.91C65.4602 52.91 65.4102 54.06 65.4802 54.59L65.4102 54.69C65.2302 54.32 65.1102 54.08 64.6702 54.09H62.3502V58.64C62.3502 58.94 62.6802 59.42 62.9802 59.48L62.8802 59.54C62.2202 59.41 61.4502 59.54 60.7402 59.54L60.6602 59.46C61.1702 59.4 61.4102 58.75 61.4102 58.39V49.88C61.4102 49.32 61.2302 49.09 60.8002 48.76L60.7702 48.62H65.2002V48.63Z" fill="#453026"/>
<path d="M80.63 40.94C80.63 40.94 83.84 47.05 84.44 48.43C85.09 47.19 88.82 41.16 88.82 41.16C89.31 40.16 89.23 39.53 87.87 39.02L87.95 38.83C89 38.97 91.76 38.89 93.06 38.83L93.2 38.97C91.71 39.13 90.85 40.02 90.31 41.11C90.31 41.11 85.93 48.43 85.12 50.03C86.12 52.33 87.22 54.52 88.28 56.84C89.23 55.06 96.95 40.52 96.95 40.52C97.27 39.9 96.68 39.17 96 39.04L96.11 38.85C96.49 38.91 98.84 39.02 100.81 38.85L100.94 38.96C99.13 39.39 98.97 39.64 98.1 41.26C98.1 41.26 91.62 53.15 88 59.82H87.65C86.35 57.36 85.08 54.91 83.87 52.42C83.36 53.4 80.3 58.77 79.73 59.82H79.44C78.33 57.25 70.89 41.68 70.89 41.68C70.19 40.14 69.3 39.41 68.22 39.3C68.28 39.16 68.28 39.13 68.33 39C69.71 39.08 72.63 39.13 73.38 39C72.98 39.35 72.38 39.7 73 41.13C73 41.13 79.36 55.33 80.04 56.76C80.5 56.03 82.74 51.49 83.12 50.79C81.99 48.14 78.39 40.92 78.39 40.92C78.01 39.97 77.74 39.17 76.39 39.06C76.44 38.95 76.42 38.95 76.47 38.85C77.74 38.93 80.07 38.96 81.07 38.85C80.39 39.45 80.14 39.8 80.63 40.96V40.94Z" fill="#453026"/>
<path d="M100.05 41.64C101.14 41.69 103.29 41.75 104.38 41.64C103.95 41.94 103.54 42.29 103.54 42.86C103.54 44.18 108.86 56.2 109.26 57.15C109.96 55.77 116.04 42.83 116.04 42.58C116.01 42.09 115.77 41.96 115.44 41.8L115.52 41.64C116.38 41.69 118.09 41.72 119.01 41.64L119.12 41.75C118.66 41.92 117.85 42.42 117.66 42.61C117.22 42.96 116.66 43.75 116.14 44.88C114.55 48.48 112.03 53.96 109.82 58.34C108.33 61.26 106.52 63.26 104.88 63.26H104.39C105.06 62.72 106.84 62.5 108.33 58.61C107.01 55.58 103.42 45.59 101.36 42.47C100.98 41.91 100.44 41.8 100.12 41.8L100.03 41.64H100.05Z" fill="#453026"/>
<path d="M135.45 50.72C135.45 55.78 131.4 59.58 126.42 59.58C121.44 59.58 117.86 55.45 117.86 50.56C117.86 45.4 121.72 41.59 126.85 41.59C131.98 41.59 135.44 45.7 135.44 50.72H135.45ZM126.5 42.16C122.15 42.16 119.48 45.86 119.48 49.94C119.48 54.02 122.29 58.96 126.97 58.96C131.34 58.96 133.75 54.93 133.75 50.96C133.75 46.99 131.1 42.15 126.5 42.15V42.16Z" fill="#453026"/>
<path d="M156.38 41.62C156.38 41.62 154.67 42.29 154.84 43.3C156.11 52.13 155.41 47.41 157 57.51C157.24 59.02 157.27 58.81 158.54 59.54C157.57 59.48 155.35 59.4 154.62 59.54C155.7 58.59 155.51 58.75 155.48 57.46C155.45 53.89 154.1 48.76 153.48 45.6C151.08 50.03 149.19 54.94 147.05 59.54H146.89C146.35 58.32 140.57 46.03 140.38 45.84C140 46.48 138.13 56.92 138.13 58.1C138.13 58.97 138.45 59.21 139.19 59.53C138.57 59.42 136.33 59.47 135.35 59.53C136.16 59.21 136.75 59.07 136.94 58.1C137.67 54.45 139.61 47.05 139.61 43.59C139.61 42.38 138.31 42.08 137.67 41.62C138.27 41.73 140.07 41.7 141.07 41.62C140.85 42.08 140.75 42.89 140.85 43.1C140.85 43.1 145.96 54.1 147.25 56.5C148.03 55.4 153.22 44.32 153.22 42.64C153.22 42.37 153 41.86 152.87 41.62C153.92 41.7 155.81 41.76 156.36 41.62H156.38Z" fill="#453026"/>
<path d="M164.48 41.64C164.16 42.21 163.15 41.75 163.15 43.7C163.15 44.21 163.18 54.64 163.15 58.01C163.15 58.82 163.53 59.04 164.18 59.42L164.07 59.53C163.07 59.45 161.45 59.47 160.58 59.53L160.52 59.39C160.58 59.44 161.6 59.12 161.6 58.18V43.56C161.6 41.94 160.41 41.88 160.3 41.64C161.25 41.8 163.33 41.67 164.46 41.64H164.48Z" fill="#453026"/>
<path d="M169.03 43.88C169.06 53.66 169.06 49.47 169.06 57.93C169.06 58.71 169.98 59.25 170.44 59.44L170.3 59.52C169 59.41 167.35 59.44 166.7 59.52C167.49 59.17 168 58.9 168 57.95V42.76C168 42.36 167.14 41.84 166.79 41.76L166.76 41.6C167.63 41.65 169.65 41.71 170.11 41.6C170 41.9 169.97 42 169.97 42.3C169.97 43.17 179.8 54.97 181.02 56.38V43.87C181.02 42.65 180.83 42.09 179.72 41.6C180.69 41.68 182.36 41.71 183.42 41.6L183.17 41.84C181.85 42.11 182.06 43.89 182.06 44.92C182.06 47.67 182.12 58.78 182.06 59.65C182.06 59.65 170.98 46.14 169.01 43.87L169.03 43.88Z" fill="#453026"/>
<path d="M199.69 42.86C199.77 44.02 199.77 44.13 199.58 45.16L199.36 45.13C198.98 42.81 195.77 42.27 193.79 42.27C189.25 42.27 186.28 44.84 186.28 49.43C186.28 54.35 188.68 58.78 194.09 58.78C195.41 58.78 196.73 58.78 198.03 58.46C197.98 57.03 198.84 52.81 197.06 52.6L197.28 52.49C198.33 52.63 199.44 52.63 200.52 52.46V52.6C199.19 53.14 199.54 57.98 199.65 59.3L199.57 59.41C197.43 59.2 195.38 59.68 193.25 59.68C188.06 59.68 184.71 55.81 184.71 50.65C184.71 45.49 188.28 41.52 193.6 41.52C195.84 41.52 197.6 42.33 199.68 42.87L199.69 42.86Z" fill="#453026"/>
<path d="M42.68 58.66C41.69 58.11 41.13 56.46 39.89 56.02C39.8567 55.98 39.84 55.94 39.84 55.9C39.9 55.9 39.96 55.85 40.09 55.86C40.61 55.8 40.91 55.38 41.16 54.88C41.23 54.79 41.26 54.74 41.35 54.8C41.4 54.89 41.47 54.8 41.53 54.9C41.8 55.31 41.9 55.73 42.29 55.79C42.35 55.79 42.39 55.62 42.39 55.62C42.51 55.21 42.35 54.9 42.1 54.52C41.46 53.61 40.74 52.72 39.75 52.53C39.15 52.43 38.43 52.23 38.08 52L37.6 51.55C37.58 51.37 37.47 51.18 37.66 51.13C38.03 51.01 38.19 51.32 38.49 51.43C38.78 51.6 39.2 52.14 39.5 51.8C39.5 51.8 39.5 51.74 39.57 51.69C39.04 49.68 37.56 48.62 36.08 47.71C36.08 47.65 36.06 47.59 36.06 47.59L36.4 47.13L36.86 47.52L37.26 47.9C37.44 47.88 37.63 47.84 37.7 47.72C37.75 47.39 37.64 47.27 37.57 47.02C37.12 46.12 36.08 46.17 35.09 45.6C35.04 45.48 34.91 45.2 35.04 45.06C35.1 45.06 35.22 45.07 35.22 45.07L35.87 45.8L36.29 45.95C36.29 45.86 36.34 45.62 36.41 45.48C36.3 45.26 36.35 45.03 36.22 44.72C36.05 44.02 35.55 43.48 34.92 43.31C35.13 41.65 34.01 40.22 34.42 38.67C34.42 38.61 34.35 38.4 34.26 38.39C34.2 38.45 34.07 38.44 34.01 38.43H33.71L33.35 41.08L33.03 41.39C32.91 41.32 32.85 41.32 32.7 41.25C32.1 40.22 31.93 38.77 30.88 38.07C30.88 38.07 30.82 38.07 30.73 38C30.5 37.83 30.55 37.54 30.51 37.3C30.58 37.18 30.7 37.16 30.8 37.11C31.1 37.13 31.52 36.86 31.69 36.54L31.84 35.77C31.88 35.59 32.02 35.33 32.14 35.31C32.38 35.39 32.54 35.67 32.75 35.77C32.88 36.02 33.31 36.02 33.5 35.85C33.48 35.22 33.32 34.55 33.07 34.06C32.91 33.81 32.69 33.49 32.54 33.33C31.94 33.2 31.46 33.62 30.95 33.61C30.84 33.48 31 33.31 31.07 33.14C30.42 29.38 31.24 24.98 30.47 21.57C30.29 20.69 29.78 20.21 29.85 19.56C30.1 19.01 29.68 18.59 29.73 18.23C29.85 18.27 29.93 18.45 29.92 18.51C30.61 18.64 31.42 18.34 31.98 18.17C32.16 18.24 32.33 18.41 32.58 18.3C33.04 18.24 33.16 17.74 33.33 17.48L33.64 17.38C33.58 17.43 33.64 17.44 33.76 17.36C33.94 17.31 34.05 17.08 34.46 17.26C34.57 17.45 34.88 17.32 34.94 17.26C35.19 16.71 35.67 16.35 36.25 15.91C36.38 15.32 36.02 14.82 36.06 14.25C35.45 13.85 35.63 12.96 35.01 12.8C34.89 12.73 34.84 12.61 34.72 12.6L34.65 12.24C34.48 12.02 34.2 11.79 34.01 11.75C33.95 11.75 33.84 11.68 33.78 11.61C32.99 11.2 31.75 11.11 30.57 11.54C30.19 11.72 29.8 11.7 29.61 11.86L29.43 12.27C29.43 12.33 29.39 12.39 29.26 12.47C28.77 12.52 28.59 12.99 28.59 13.38L28.64 14.46C28.58 14.51 28.36 14.5 28.18 14.52C27.76 14.04 27.82 13.18 27.21 12.8C27.03 12.73 26.67 12.71 26.56 12.94C26.55 13.12 26.56 13.39 26.55 13.51C26.24 13.58 26.05 13.68 25.82 13.58C25.12 13.56 24.81 14.53 24.08 14.57C23.45 13.99 22.27 12.26 21.92 11.58C21.56 10.63 22.93 10.24 23.42 9.58999C24.19 9.03999 26.39 8.37999 26.45 7.96999C27.6 8.40999 28.72 8.98999 30.11 8.66999C31.07 8.36999 32.01 8.01999 32.71 7.16999C32.64 6.86999 32.69 6.56999 32.77 6.24999C32.4 5.01999 31.72 4.28999 30.6 3.79999C30.31 3.56999 29.92 3.54999 29.72 3.31999C29.43 2.66999 29.75 2.02999 29.68 1.27999C29.49 0.89999 29.27 0.61999 28.97 0.59999C28.84 0.67999 28.67 0.54999 28.54 0.65999C28.44 0.76999 28.15 0.65999 28.09 0.59999C28.03 0.53999 28.04 0.47999 28.01 0.41999C27.84 0.19999 27.4 0.0199902 26.98 -0.0100098L26.14 0.67999L25.44 1.16999C24.16 0.77999 22.85 0.84999 21.5 1.46999C21.06 1.70999 21.11 2.24999 20.98 2.77999C21.17 4.40999 22.37 5.05999 23.18 6.09999C23.25 6.34999 23.12 6.50999 23.02 6.71999C21.83 7.73999 20.88 8.69999 19.61 9.50999C19.15 10.05 18.41 10.21 18.41 11.14C18.41 12.79 19.01 14.38 19.88 15.37C20.11 15.99 20.49 16.16 20.91 16.67C21.1 16.98 21.3 17.21 21.46 17.46C22.11 20.32 19.83 23.88 21.79 26.43C21.97 26.77 21.84 27 21.67 27.29C21.24 27.83 21.18 28.69 21.04 29.37C20.29 29.23 19.62 28.77 18.88 29.04C18.61 28.93 18.57 28.69 18.4 28.5C16.8 26.21 13.45 26.76 11.14 26.24L10.77 25.83C11.4 24.61 11.83 23.27 11.77 21.85C11.82 21.08 11.6 20.31 11.48 19.41C11.36 18.56 10.75 18.07 10.29 17.33C10 17.1 9.64003 17.08 9.32003 16.9C8.26003 16.47 6.96003 15.96 5.73003 16.51C4.74003 16.8 4.56003 18.05 3.74003 18.89C2.98003 19.73 2.23003 20.61 2.83003 22.06C2.47003 22.85 2.21003 23.54 1.80003 24.27C1.74003 24.68 1.56003 25.12 1.50003 25.59C1.22003 26.53 0.110034 28.16 1.09003 28.41C1.19003 29.2 0.900034 29.86 0.760034 30.48C0.620034 31.16 0.640034 31.82 0.510034 32.38C0.0900343 32.23 0.940034 32.68 0.740034 32.94C1.04003 33.83 -0.0599657 34.86 0.370034 35.67C0.430034 35.67 0.490034 35.74 0.550034 35.74C1.81003 35.05 1.62003 33 3.17003 32.53C3.80003 31.77 4.03003 30.67 4.22003 29.58C4.55003 28.73 4.22003 27.84 4.81003 26.83C5.48003 25.92 5.91003 24.57 6.27003 23.34C6.52003 23.24 6.89003 23.17 7.13003 23.16L7.55003 24.12L7.73003 24.52C7.80003 24.76 7.92003 24.89 8.05003 25.23C8.16003 25.87 8.33003 26.36 8.34003 27.1C8.17003 27.45 7.61003 27.68 7.15003 28.07C6.95003 28.33 6.59003 28.66 6.30003 28.91C5.78003 29.38 5.34003 30.01 4.84003 30.67C4.37003 31.78 3.90003 32.82 3.45003 34.05C3.28003 34.76 3.28003 35.68 3.58003 36.54C3.69003 37.15 4.11003 37.72 4.16003 38.32C4.45003 38.88 4.69003 39.41 4.87003 39.92C4.67003 40.51 4.48003 40.64 3.91003 41.02C3.18003 41.48 2.94003 41.88 1.91003 42.74C1.21003 43.2 -0.119966 44.46 0.0600343 45.76C0.590034 46.84 1.90003 46.84 2.90003 47.36C3.89003 47.9 4.81003 48.27 5.76003 48.63L5.01003 49.81C4.88003 49.92 4.80003 50.19 4.88003 50.49C3.82003 51.31 8.20003 54.33 9.25003 56.62C9.55003 57.6 9.92003 58.37 10.61 58.87L10.23 59.5C10 60.2 10.7 60.67 10.94 61.13C11.25 61.84 11.54 62.49 12.36 63.02C12.63 63.16 12.85 63.02 13.04 62.79C13.85 61.14 13.27 59.42 12.88 57.66C11.75 56 10.45 54.14 9.31003 52.51C8.89003 52 8.84003 51.46 9.22003 50.8C9.19003 50.74 9.25003 50.74 9.25003 50.74C9.46003 50.84 9.34003 50.81 9.45003 50.96C9.80003 51.16 10.25 51.67 10.81 51.53C10.93 51.57 11.04 51.66 11 51.78C11 51.78 10.94 51.83 10.93 51.95C10.63 52.32 10.72 52.38 10.45 52.79C10.39 53.62 11.55 53.97 11.87 54.62C12.14 54.73 12.13 54.85 12.43 54.9C12.67 55.03 13.04 55.27 13.22 54.92C13.17 54.8 13.35 54.27 13.49 54.01C13.16 52.22 13.47 51.61 12.71 49.86C12.13 49.43 11.01 48.49 10.39 48.24C11.81 46.57 12.3 45.19 13.81 43.11C14.31 42.87 14.88 43.36 15.25 43.72C15.36 44.3 15.67 44.71 15.79 45.19C15.79 45.25 15.72 45.3 15.72 45.3L14.59 45.82L13.98 46.76L14.72 47.98C14.87 48.05 14.86 48.17 14.98 48.24L15.17 48.43C15.33 48.35 15.39 48.36 15.45 48.36C15.59 48.43 15.69 48.34 15.59 48.49C15.53 49.41 15.86 50.21 16.27 50.99C16.75 51.47 16.69 51.98 17.04 52.18C17.35 52.18 17.65 52.1 17.88 51.88C17.99 51.14 18.01 50.48 18.06 49.71C18.01 49.56 18.18 49.24 18.31 49.13C18.31 49.19 18.42 49.26 18.48 49.32C18.92 50.04 19.15 50.65 19.86 51.39C20.17 51.77 20.52 52.42 21.09 52.49C21.21 52.61 21.38 52.69 21.46 52.9L21.32 53.19C21.14 53.18 21.15 53.42 20.84 53.61C20.07 55.95 21.92 58.65 22.09 61.12C22.5 61.78 22.54 62.53 22.43 63.24C22.59 64.06 22.66 64.79 23.03 65.59C23.06 66.88 23.23 67.91 22.93 69.18C21.8 70.54 23.17 72.31 22.97 73.91C23.44 74.57 24.39 74.46 24.93 75.06C25.23 75.17 25.62 75.59 26.01 75.31C25.95 74.05 25.24 72.36 25.37 70.99C25.06 69.38 24.87 68.05 24.7 66.6C24.99 65.96 24.76 65.29 24.69 64.62C24.6 64.19 24.84 63.82 24.71 63.39C24.73 60.85 24.78 57.95 25.5 55.51C25.64 55.34 25.69 55.34 25.88 55.27C26.84 55.01 27.58 54.04 28.51 54.16C28.51 54.16 28.45 58.08 28.49 57.9C28.6 60.78 28.46 64.96 28.46 64.96C28.34 64.96 28.27 65.1 28.05 65.11C27.58 65.77 26.24 65.83 25.92 66.88C25.92 67.18 25.75 67.53 26.04 67.66C26.64 67.85 27.13 67.32 27.63 67.02C27.67 66.9 28.04 66.87 28.25 66.91C28.27 67.03 28.26 67.15 28.25 67.33C27.87 68.08 27.07 68.09 26.41 68.46C26.28 68.57 26.26 68.87 26.27 69.11C26.62 69.7 27.22 70.25 27.96 70.63C30.38 70.28 32.71 68.28 35.55 68.03C36.97 67.74 37.37 66.33 38.73 65.91L42.26 64.89C42.3 64.8567 42.3234 64.8167 42.33 64.77V64.35L40.35 63.11C40.18 62.95 40.35 62.63 40.42 62.46C40.64 62.33 40.85 62.4 41.09 62.42C41.57 62.48 41.9 62.96 42.07 63.21C42.11 63.1967 42.15 63.19 42.19 63.19L42.57 63.01C42.69 62.96 42.69 62.66 42.55 62.35C42.19 61.37 41.2 60.82 40.35 59.96C40.25 59.6 39.84 58.97 40.05 58.62C41.04 58.39 41.81 59.61 42.51 59.98C42.66 60.02 43.02 60.11 43 59.92C43.07 59.78 43.23 59.67 43.23 59.61C43.13 59.24 42.89 58.87 42.72 58.62L42.68 58.66ZM6.70003 46.2C6.09003 45.77 5.57003 45.37 4.99003 44.97C6.34003 44.32 7.20003 44.1 8.20003 43.42C7.68003 44.37 7.19003 45.24 6.70003 46.19V46.2ZM27.44 34.37C27.4 34.37 27.36 34.37 27.32 34.37C26.43 33.23 27.35 31.74 26.98 30.46C26.5 29.14 27.36 28 27.56 26.88C27.74 26.86 27.86 26.87 27.84 26.72L27.78 26.29L27.9 26.81C28.08 27.66 27.61 28.35 27.73 29.28C27.95 30.46 27.71 31.73 28.35 32.65C28.35 33.1 28.64 33.24 28.76 33.7C28.57 34.28 27.88 34.12 27.44 34.39V34.37ZM30.88 62.86C30.52 63.2 30.1 63.95 29.72 64.31C29.48 63.01 29.69 60.75 29.7 59.28C29.7 58.08 29.65 56.49 29.83 55.22L29.95 55.29C31.04 56.56 31.8 58.35 32.66 59.99C32.13 61.03 31.18 61.69 30.88 62.86Z" fill="#453026"/>
</g>
<defs>
<clipPath id="clip0_127_1616">
<rect width="449.22" height="75.43" fill="white"/>
</clipPath>
</defs>
</svg>
